<?xml version="1.0" encoding="UTF-8" standalone="no"?>
<!-- Created with Inkscape (http://www.inkscape.org/) -->

<svg
   xmlns:dc="http://purl.org/dc/elements/1.1/"
   xmlns:cc="http://creativecommons.org/ns#"
   xmlns:rdf="http://www.w3.org/1999/02/22-rdf-syntax-ns#"
   xmlns:svg="http://www.w3.org/2000/svg"
   xmlns="http://www.w3.org/2000/svg"
   xmlns:xlink="http://www.w3.org/1999/xlink"
   xmlns:sodipodi="http://sodipodi.sourceforge.net/DTD/sodipodi-0.dtd"
   xmlns:inkscape="http://www.inkscape.org/namespaces/inkscape"
   width="986"
   height="256"
   viewBox="0 0 986 256.00001"
   id="svg3462"
   version="1.1"
   inkscape:version="0.91 r13725"
   inkscape:export-filename="/home/astalan/Programs/VinogradovDZ/ClassWork/Vovic/Faer"
   inkscape:export-xdpi="90"
   inkscape:export-ydpi="90"
   sodipodi:docname="drawing.svg">
  <defs
     id="defs3464">
    <linearGradient
       inkscape:collect="always"
       xlink:href="#linearGradient3422"
       id="linearGradient3428"
       x1="505.07626"
       y1="894.77832"
       x2="482.85291"
       y2="407.88483"
       gradientUnits="userSpaceOnUse"
       gradientTransform="matrix(0.15446109,0,0,0.15775775,-7.1218063,884.92303)" />
    <linearGradient
       inkscape:collect="always"
       id="linearGradient3422">
      <stop
         style="stop-color:#008000;stop-opacity:1;"
         offset="0"
         id="stop3424" />
      <stop
         style="stop-color:#008000;stop-opacity:0;"
         offset="1"
         id="stop3426" />
    </linearGradient>
    <linearGradient
       inkscape:collect="always"
       xlink:href="#linearGradient3422"
       id="linearGradient3428-7"
       x1="505.07626"
       y1="894.77832"
       x2="482.85291"
       y2="407.88483"
       gradientUnits="userSpaceOnUse"
       gradientTransform="matrix(0.15446109,0,0,0.15775775,134.59099,885.2386)" />
    <linearGradient
       inkscape:collect="always"
       xlink:href="#linearGradient3422"
       id="linearGradient3428-8"
       x1="505.07626"
       y1="894.77832"
       x2="482.85291"
       y2="407.88483"
       gradientUnits="userSpaceOnUse"
       gradientTransform="matrix(0.15446109,0,0,0.15775775,274.78009,885.23861)" />
    <linearGradient
       inkscape:collect="always"
       xlink:href="#linearGradient3422"
       id="linearGradient3428-6"
       x1="505.07626"
       y1="894.77832"
       x2="482.85291"
       y2="407.88483"
       gradientUnits="userSpaceOnUse"
       gradientTransform="matrix(0.15446109,0,0,0.15775775,415.73109,885.23861)" />
    <linearGradient
       inkscape:collect="always"
       xlink:href="#linearGradient3422"
       id="linearGradient3428-1"
       x1="505.07626"
       y1="894.77832"
       x2="482.85291"
       y2="407.88483"
       gradientUnits="userSpaceOnUse"
       gradientTransform="matrix(0.15446109,0,0,0.15775775,557.44389,885.23861)" />
    <linearGradient
       inkscape:collect="always"
       xlink:href="#linearGradient3422"
       id="linearGradient3428-9"
       x1="505.07626"
       y1="894.77832"
       x2="482.85291"
       y2="407.88483"
       gradientUnits="userSpaceOnUse"
       gradientTransform="matrix(0.15446109,0,0,0.15775775,698.39489,885.2386)" />
    <linearGradient
       inkscape:collect="always"
       xlink:href="#linearGradient3422"
       id="linearGradient3428-13"
       x1="505.07626"
       y1="894.77832"
       x2="482.85291"
       y2="407.88483"
       gradientUnits="userSpaceOnUse"
       gradientTransform="matrix(0.15446109,0,0,0.15775775,840.03919,885.33217)" />
  </defs>
  <sodipodi:namedview
     id="base"
     pagecolor="#ffffff"
     bordercolor="#666666"
     borderopacity="1.0"
     inkscape:pageopacity="0.0"
     inkscape:pageshadow="2"
     inkscape:zoom="0.94089665"
     inkscape:cx="448.54901"
     inkscape:cy="23.15405"
     inkscape:document-units="px"
     inkscape:current-layer="layer1"
     showgrid="false"
     units="px"
     inkscape:window-width="1217"
     inkscape:window-height="977"
     inkscape:window-x="61"
     inkscape:window-y="24"
     inkscape:window-maximized="1" />
  <metadata
     id="metadata3467">
    <rdf:RDF>
      <cc:Work
         rdf:about="">
        <dc:format>image/svg+xml</dc:format>
        <dc:type
           rdf:resource="http://purl.org/dc/dcmitype/StillImage" />
        <dc:title></dc:title>
      </cc:Work>
    </rdf:RDF>
  </metadata>
  <g
     inkscape:label="Layer 1"
     inkscape:groupmode="layer"
     id="layer1"
     transform="translate(0,-796.3621)">
    <rect
       style="fill:#008000"
       id="rect3393"
       width="6.8652878"
       height="131.94957"
       x="66.523926"
       y="903.6933" />
    <rect
       style="fill:#008000"
       id="rect3395"
       width="4.6808782"
       height="103.26488"
       x="89.928223"
       y="916.76074" />
    <rect
       style="fill:#008000"
       id="rect3395-1"
       width="4.6808782"
       height="103.26488"
       x="43.275391"
       y="917.07947" />
    <ellipse
       style="fill:url(#linearGradient3428);fill-opacity:1"
       id="path3412"
       cx="69.33252"
       cy="952.93536"
       rx="58.979065"
       ry="47.648457" />
    <rect
       style="fill:#008000"
       id="rect3393-7"
       width="6.8652878"
       height="131.94957"
       x="208.23682"
       y="904.00885" />
    <rect
       style="fill:#008000"
       id="rect3395-9"
       width="4.6808782"
       height="103.26488"
       x="231.64111"
       y="917.07629" />
    <rect
       style="fill:#008000"
       id="rect3395-1-6"
       width="4.6808782"
       height="103.26488"
       x="184.98828"
       y="917.39508" />
    <ellipse
       style="fill:url(#linearGradient3428-7);fill-opacity:1"
       id="path3412-3"
       cx="211.04541"
       cy="953.25092"
       rx="58.979065"
       ry="47.648457" />
    <rect
       style="fill:#008000"
       id="rect3393-78"
       width="6.8652878"
       height="131.94957"
       x="348.42578"
       y="904.00885" />
    <rect
       style="fill:#008000"
       id="rect3395-6"
       width="4.6808782"
       height="103.26488"
       x="371.83057"
       y="917.07629" />
    <rect
       style="fill:#008000"
       id="rect3395-1-8"
       width="4.6808782"
       height="103.26488"
       x="325.17773"
       y="917.39508" />
    <ellipse
       style="fill:url(#linearGradient3428-8);fill-opacity:1"
       id="path3412-0"
       cx="351.23438"
       cy="953.25092"
       rx="58.979065"
       ry="47.648457" />
    <rect
       style="fill:#008000"
       id="rect3393-4"
       width="6.8652878"
       height="131.94957"
       x="489.37695"
       y="904.00885" />
    <rect
       style="fill:#008000"
       id="rect3395-8"
       width="4.6808782"
       height="103.26488"
       x="512.78125"
       y="917.07629" />
    <rect
       style="fill:#008000"
       id="rect3395-1-82"
       width="4.6808782"
       height="103.26488"
       x="466.12842"
       y="917.39508" />
    <ellipse
       style="fill:url(#linearGradient3428-6);fill-opacity:1"
       id="path3412-01"
       cx="492.18555"
       cy="953.25092"
       rx="58.979065"
       ry="47.648457" />
    <rect
       style="fill:#008000"
       id="rect3393-8"
       width="6.8652878"
       height="131.94957"
       x="631.08984"
       y="904.00885" />
    <rect
       style="fill:#008000"
       id="rect3395-3"
       width="4.6808782"
       height="103.26488"
       x="654.49414"
       y="917.07629" />
    <rect
       style="fill:#008000"
       id="rect3395-1-2"
       width="4.6808782"
       height="103.26488"
       x="607.84131"
       y="917.39502" />
    <ellipse
       style="fill:url(#linearGradient3428-1);fill-opacity:1"
       id="path3412-9"
       cx="633.89844"
       cy="953.25092"
       rx="58.979065"
       ry="47.648457" />
    <rect
       style="fill:#008000"
       id="rect3393-6"
       width="6.8652878"
       height="131.94957"
       x="772.04053"
       y="904.00885" />
    <rect
       style="fill:#008000"
       id="rect3395-17"
       width="4.6808782"
       height="103.26488"
       x="795.44531"
       y="917.07629" />
    <rect
       style="fill:#008000"
       id="rect3395-1-3"
       width="4.6808782"
       height="103.26488"
       x="748.79248"
       y="917.39502" />
    <ellipse
       style="fill:url(#linearGradient3428-9);fill-opacity:1"
       id="path3412-1"
       cx="774.84912"
       cy="953.25092"
       rx="58.979065"
       ry="47.648457" />
    <path
       style="fill:#ffff00;fill-rule:evenodd;stroke:#000000;stroke-width:0.066666px;stroke-linecap:butt;stroke-linejoin:miter;stroke-opacity:1"
       d="m 66.265194,968.31709 c 0,0 -2.857,-1.97644 -2.9631,-3.50183 -0.1401,-2.01292 3.2325,-5.11805 3.2325,-5.11805 z"
       id="path4180"
       inkscape:connector-curvature="0"
       sodipodi:nodetypes="cacc" />
    <path
       style="fill:#ffff00;fill-rule:evenodd;stroke:#000000;stroke-width:0.11626482px;stroke-linecap:butt;stroke-linejoin:miter;stroke-opacity:1"
       d="m 208.35939,969.08126 c 0,0 -3.9983,-4.29534 -4.1468,-7.61044 -0.196,-4.37463 4.5238,-11.12294 4.5238,-11.12294 z"
       id="path4180-3"
       inkscape:connector-curvature="0"
       sodipodi:nodetypes="cacc" />
    <path
       style="fill:#ffff00;fill-rule:evenodd;stroke:#000000;stroke-width:0.066666px;stroke-linecap:butt;stroke-linejoin:miter;stroke-opacity:1"
       d="m 208.76259,950.53858 5.3874,-8.61988 -2.4243,8.08114 4.3099,-4.57931 -6.7342,9.428 5.6568,-1.8856 -5.9262,5.38742 -1.0775,-2.69371 0,0 0,-0.26937"
       id="path4197"
       inkscape:connector-curvature="0" />
    <path
       inkscape:connector-curvature="0"
       id="path4199"
       d="m 208.76259,950.80796 5.3874,-8.61988 -2.4243,8.08113 4.3099,-4.57931 -6.7342,9.428 5.6568,-1.8856 -5.9262,5.38742 -1.0775,-2.69371 0,0 0,-0.26937"
       style="fill:#ffff00;fill-rule:evenodd;stroke:#000000;stroke-width:0.066666px;stroke-linecap:butt;stroke-linejoin:miter;stroke-opacity:1" />
    <path
       style="fill:#ffff00;fill-rule:evenodd;stroke:#000000;stroke-width:0.066666px;stroke-linecap:butt;stroke-linejoin:miter;stroke-opacity:1"
       d="m 489.17809,966.43149 c 0,0 -1.7683,-1.99057 -1.8855,-3.23245 -0.8862,-9.38669 9.4279,-26.66776 9.4279,-26.66776 l 4.31,16.43165 -11.3136,10.23611 0,0 z"
       id="path4241"
       inkscape:connector-curvature="0"
       sodipodi:nodetypes="caccccc" />
    <path
       style="fill:#ffff00;fill-rule:evenodd;stroke:#000000;stroke-width:0.066666px;stroke-linecap:butt;stroke-linejoin:miter;stroke-opacity:1"
       d="m 500.76109,952.69356 c 0,0 5.2921,-7.92565 5.1181,-12.39109 -0.2627,-6.74112 -9.1587,-18.04787 -9.1587,-18.04787 l 0,14.81542 z"
       id="path4243"
       inkscape:connector-curvature="0"
       sodipodi:nodetypes="caccc" />
    <path
       style="fill:#ffff00;fill-rule:evenodd;stroke:#000000;stroke-width:0.066666px;stroke-linecap:butt;stroke-linejoin:miter;stroke-opacity:1"
       d="m 489.44749,934.64568 -9.6973,-12.66046 5.6568,3.50184 c 0,0 -4.342,-7.24788 -5.1181,-11.3136 -1.0619,-5.56276 0.8081,-16.9704 0.8081,-16.9704 0,0 -0.055,13.42356 2.9631,19.12537 0.8618,1.62834 4.0406,3.7712 4.0406,3.7712 l 0.8081,6.73428 0.8081,-3.50183 -0.5388,-6.73428 -2.4243,-5.92617 2.4243,2.15497 z"
       id="path4245"
       inkscape:connector-curvature="0"
       sodipodi:nodetypes="cccacaccccccc" />
    <path
       style="fill:#ffff00;fill-rule:evenodd;stroke:#000000;stroke-width:0.066666px;stroke-linecap:butt;stroke-linejoin:miter;stroke-opacity:1"
       d="m 347.75819,967.50898 c 0,0 -2.5929,-3.00253 -2.6937,-4.84868 -0.4673,-8.55883 9.9667,-23.70468 9.9667,-23.70468 l 1.8856,16.97039 -8.8892,7.5424 0,5.38743 z"
       id="path4247"
       inkscape:connector-curvature="0"
       sodipodi:nodetypes="caccccc" />
    <path
       style="fill:#ffff00;fill-rule:evenodd;stroke:#000000;stroke-width:0.066666px;stroke-linecap:butt;stroke-linejoin:miter;stroke-opacity:1"
       d="m 355.03119,926.83391 c 0,0 7.4175,11.42253 7.0037,17.77851 -0.3133,4.81265 -7.0037,12.66045 -7.0037,12.66045 z"
       id="path4249"
       inkscape:connector-curvature="0"
       sodipodi:nodetypes="cacc" />
    <path
       style="fill:#ffff00;fill-rule:evenodd;stroke:#000000;stroke-width:0.066666px;stroke-linecap:butt;stroke-linejoin:miter;stroke-opacity:1"
       d="m 631.40619,949.4611 c 0,0 10.9084,-9.34165 12.1217,-15.89291 1.2781,-6.90067 -5.9261,-20.20285 -5.9261,-20.20285 l -0.2694,18.31725 z"
       id="path4251"
       inkscape:connector-curvature="0"
       sodipodi:nodetypes="caccc" />
    <path
       style="fill:#ffff00;fill-rule:evenodd;stroke:#000000;stroke-width:0.066666px;stroke-linecap:butt;stroke-linejoin:miter;stroke-opacity:1"
       d="m 630.59809,922.25459 c 0,0 -9.5923,-10.03657 -9.9667,-16.43164 -0.5308,-9.06531 11.3136,-24.78216 11.3136,-24.78216 l -1.3469,10.50548 c 0,0 7.8126,-2.85465 9.6974,-6.19554 1.7652,-3.12916 -1.3198,-7.55269 0.2693,-10.77486 1.3274,-2.69141 7.0037,-5.6568 7.0037,-5.6568 0,0 -3.2375,3.67425 -4.0406,5.92618 -2.089,5.85755 1.75,13.3575 -1.6162,18.58662 -2.1763,3.38065 -7.6369,3.10907 -10.5055,5.92617 -1.2635,1.24085 -2.6937,4.57931 -2.6937,4.57931 l 11.3136,-5.11805 5.118,-4.57932 -14.546,16.16228 0.2694,12.66045 z"
       id="path4253"
       inkscape:connector-curvature="0"
       sodipodi:nodetypes="caccaacaaacccccc" />
    <path
       style="fill:#ffff00;fill-rule:evenodd;stroke:#000000;stroke-width:0.066666px;stroke-linecap:butt;stroke-linejoin:miter;stroke-opacity:1"
       d="m 771.74869,912.55723 c 0,0 -5.1166,-4.69875 -5.1181,-7.81177 -0.01,-11.15715 17.8203,-16.86854 18.3173,-28.01462 0.4079,-9.14953 -12.9298,-24.24341 -12.9298,-24.24341 0,0 5.1412,5.57985 7.5423,4.04057 3.7109,-2.37894 -0.8081,-13.1992 -0.8081,-13.1992 0,0 -12.7527,-7.01556 -15.6235,-13.19919 -2.2686,-4.88648 0,-16.16229 0,-16.16229 0,0 2.2683,11.42304 5.9261,15.62354 4.3013,4.93947 13.9312,3.77534 17.2398,9.428 4.0371,6.8972 -8.0466,22.13428 -0.2694,23.97405 3.7907,0.89671 5.1181,-10.50548 5.1181,-10.50548 0,0 5.3387,13.88324 4.5793,21.01096 -0.6814,6.39539 -4.3349,12.27034 -7.9887,17.56328 -4.2253,6.12084 -15.7159,15.83876 -15.7159,15.83876 l 0,0 z"
       id="path4255"
       inkscape:connector-curvature="0"
       sodipodi:nodetypes="caacscacsascaaccc" />
    <rect
       style="fill:#008000"
       id="rect3393-5"
       width="6.8652878"
       height="131.94957"
       x="913.68506"
       y="904.10242" />
    <rect
       style="fill:#008000"
       id="rect3395-0"
       width="4.6808782"
       height="103.26488"
       x="937.08936"
       y="917.16986" />
    <rect
       style="fill:#008000"
       id="rect3395-1-89"
       width="4.6808782"
       height="103.26488"
       x="890.43652"
       y="917.48859" />
    <ellipse
       style="fill:url(#linearGradient3428-13);fill-opacity:1"
       id="path3412-2"
       cx="916.49365"
       cy="953.34448"
       rx="58.979065"
       ry="47.648457" />
    <path
       style="fill:#ffff00;fill-rule:evenodd;stroke:#000000;stroke-width:0.066666px;stroke-linecap:butt;stroke-linejoin:miter;stroke-opacity:1"
       d="m 917.47849,895.85621 c 0,0 5.8532,-7.96159 6.465,-12.66045 1.1504,-8.83688 -5.6568,-26.12902 -5.6568,-26.12902 l 3.2324,6.46491 c 0,0 0.5955,-8.38284 -1.3469,-11.85234 -3.5623,-6.36307 -17.2397,-13.46856 -17.2397,-13.46856 0,0 -11.1065,-10.333 -11.583,-17.23977 -0.5638,-8.17268 10.7749,-22.08845 10.7749,-22.08845 0,0 -7.2306,13.48877 -5.9262,20.47223 0.8705,4.66048 4.272,13.20383 8.6199,11.31359 3.4251,-1.48899 -1.8856,-11.04422 -1.8856,-11.04422 l 8.8892,15.35416 c 1.7536,-7.4081 1.9123,-14.58834 -1.3468,-21.28034 0,0 3.9233,6.38085 5.6568,9.69737 1.9055,3.64572 5.2025,11.19081 5.2025,11.19081 0,0 6.2344,11.02114 7.7273,17.09318 1.1168,4.5416 0.8081,14.00731 0.8081,14.00731 0,0 2.0373,16.3416 -1.6162,23.16594 -3.0515,5.70009 -15.3542,11.85233 -15.3542,11.85233 z"
       id="path4296"
       inkscape:connector-curvature="0"
       sodipodi:nodetypes="caccacacaacccacacacc" />
  </g>
</svg>
